<?xml version="1.0" encoding="UTF-8"?>
<svg id="Layer_2" data-name="Layer 2" xmlns="http://www.w3.org/2000/svg" xmlns:xlink="http://www.w3.org/1999/xlink" viewBox="0 0 481.8 548.23">
  <defs>
    <style>
      .cls-1 {
        fill: url(#linear-gradient-2);
      }

      .cls-2 {
        fill: url(#linear-gradient-17);
      }

      .cls-3 {
        fill: url(#linear-gradient-15);
      }

      .cls-4 {
        fill: url(#linear-gradient-18);
      }

      .cls-5 {
        fill: url(#linear-gradient-28);
      }

      .cls-6 {
        fill: url(#linear-gradient-14);
      }

      .cls-7 {
        fill: url(#linear-gradient-20);
      }

      .cls-8 {
        fill: url(#linear-gradient-6);
      }

      .cls-9 {
        fill: url(#linear-gradient-11);
      }

      .cls-10 {
        fill: url(#linear-gradient-10);
      }

      .cls-11 {
        fill: url(#linear-gradient-16);
      }

      .cls-12 {
        fill: url(#linear-gradient-31);
      }

      .cls-13 {
        fill: url(#linear-gradient-21);
      }

      .cls-14 {
        fill: url(#linear-gradient-25);
      }

      .cls-15 {
        fill: url(#linear-gradient-5);
      }

      .cls-16 {
        fill: url(#linear-gradient-7);
      }

      .cls-17 {
        fill: url(#linear-gradient-24);
      }

      .cls-18 {
        fill: url(#linear-gradient-9);
      }

      .cls-19 {
        fill: url(#linear-gradient-22);
      }

      .cls-20 {
        fill: url(#linear-gradient-3);
      }

      .cls-21 {
        fill: url(#linear-gradient);
      }

      .cls-22 {
        fill: url(#linear-gradient-27);
      }

      .cls-23 {
        fill: url(#linear-gradient-29);
      }

      .cls-24 {
        fill: url(#linear-gradient-30);
      }

      .cls-25 {
        fill: url(#linear-gradient-23);
      }

      .cls-26 {
        fill: url(#linear-gradient-19);
      }

      .cls-27 {
        fill: url(#linear-gradient-4);
      }

      .cls-28 {
        fill: url(#linear-gradient-8);
      }

      .cls-29 {
        fill: url(#linear-gradient-12);
      }

      .cls-30 {
        fill: url(#linear-gradient-13);
      }

      .cls-31 {
        fill: url(#linear-gradient-26);
      }
    </style>
    <linearGradient id="linear-gradient" x1="204.28" y1="133.78" x2="67.77" y2="270.29" gradientUnits="userSpaceOnUse">
      <stop offset="0" stop-color="#f3c570"/>
      <stop offset="1" stop-color="#ac8538"/>
    </linearGradient>
    <linearGradient id="linear-gradient-2" x1="245.21" y1="-2.35" x2="176.45" y2="66.41" xlink:href="#linear-gradient"/>
    <linearGradient id="linear-gradient-3" x1="138.56" y1="176.52" x2="276.59" y2="176.52" xlink:href="#linear-gradient"/>
    <linearGradient id="linear-gradient-4" x1="263.69" y1="227.29" x2="343.31" y2="227.29" xlink:href="#linear-gradient"/>
    <linearGradient id="linear-gradient-5" x1="207.76" y1="202.24" x2="279.8" y2="202.24" xlink:href="#linear-gradient"/>
    <linearGradient id="linear-gradient-6" x1="207.13" y1="202.24" x2="280.43" y2="202.24" gradientTransform="translate(352.97 -95.09) rotate(70.49)" xlink:href="#linear-gradient"/>
    <linearGradient id="linear-gradient-7" x1="155.48" y1="26.52" x2="135.48" y2="38.07" gradientTransform="translate(.28 .48) rotate(-1.25) scale(.99 .96) skewX(-2.46)" xlink:href="#linear-gradient"/>
    <linearGradient id="linear-gradient-8" x1="130.18" y1="41.29" x2="109.8" y2="53.06" gradientTransform="translate(.28 .48) rotate(-1.25) scale(.99 .96) skewX(-2.46)" xlink:href="#linear-gradient"/>
    <linearGradient id="linear-gradient-9" x1="140.15" y1="35.27" x2="124.97" y2="44.04" gradientTransform="translate(.28 .48) rotate(-1.25) scale(.99 .96) skewX(-2.46)" xlink:href="#linear-gradient"/>
    <linearGradient id="linear-gradient-10" x1="131.32" y1="8.07" x2="122.78" y2="13" gradientTransform="translate(.28 .48) rotate(-1.25) scale(.99 .96) skewX(-2.46)" xlink:href="#linear-gradient"/>
    <linearGradient id="linear-gradient-11" x1="114.27" y1="18.06" x2="105.73" y2="22.99" gradientTransform="translate(.28 .48) rotate(-1.25) scale(.99 .96) skewX(-2.46)" xlink:href="#linear-gradient"/>
    <linearGradient id="linear-gradient-12" x1="126.35" y1="12.48" x2="112.09" y2="20.72" gradientTransform="translate(.28 .48) rotate(-1.25) scale(.99 .96) skewX(-2.46)" xlink:href="#linear-gradient"/>
    <linearGradient id="linear-gradient-13" x1="142.02" y1="3.33" x2="129.77" y2="10.41" gradientTransform="translate(.28 .48) rotate(-1.25) scale(.99 .96) skewX(-2.46)" xlink:href="#linear-gradient"/>
    <linearGradient id="linear-gradient-14" x1="108.7" y1="22.85" x2="96.44" y2="29.93" gradientTransform="translate(.28 .48) rotate(-1.25) scale(.99 .96) skewX(-2.46)" xlink:href="#linear-gradient"/>
    <linearGradient id="linear-gradient-15" x1="41.17" y1="475.14" x2="41.17" y2="413.43" xlink:href="#linear-gradient"/>
    <linearGradient id="linear-gradient-16" x1="111.45" y1="476.27" x2="111.45" y2="413.43" xlink:href="#linear-gradient"/>
    <linearGradient id="linear-gradient-17" x1="167.42" y1="476.27" x2="167.42" y2="412.3" xlink:href="#linear-gradient"/>
    <linearGradient id="linear-gradient-18" x1="221.25" y1="475.06" x2="221.25" y2="413.43" xlink:href="#linear-gradient"/>
    <linearGradient id="linear-gradient-19" x1="285.22" y1="475.06" x2="285.22" y2="413.43" xlink:href="#linear-gradient"/>
    <linearGradient id="linear-gradient-20" x1="348.67" y1="475.06" x2="348.67" y2="413.26" xlink:href="#linear-gradient"/>
    <linearGradient id="linear-gradient-21" x1="402.55" y1="475.06" x2="402.55" y2="413.43" xlink:href="#linear-gradient"/>
    <linearGradient id="linear-gradient-22" x1="451.82" y1="475.06" x2="451.82" y2="413.26" xlink:href="#linear-gradient"/>
    <linearGradient id="linear-gradient-23" x1="8.2" y1="548.23" x2="8.2" y2="500.99" xlink:href="#linear-gradient"/>
    <linearGradient id="linear-gradient-24" x1="58.38" y1="538.32" x2="58.38" y2="500.99" xlink:href="#linear-gradient"/>
    <linearGradient id="linear-gradient-25" x1="122.56" y1="538.58" x2="122.56" y2="500.99" xlink:href="#linear-gradient"/>
    <linearGradient id="linear-gradient-26" x1="186.69" y1="538.32" x2="186.69" y2="500.99" xlink:href="#linear-gradient"/>
    <linearGradient id="linear-gradient-27" x1="243.05" y1="538.32" x2="243.05" y2="500.99" xlink:href="#linear-gradient"/>
    <linearGradient id="linear-gradient-28" x1="298.29" y1="538.32" x2="298.29" y2="500.99" xlink:href="#linear-gradient"/>
    <linearGradient id="linear-gradient-29" x1="353.54" y1="538.32" x2="353.54" y2="500.99" xlink:href="#linear-gradient"/>
    <linearGradient id="linear-gradient-30" x1="412.5" y1="539.05" x2="412.5" y2="500.99" xlink:href="#linear-gradient"/>
    <linearGradient id="linear-gradient-31" x1="467.01" y1="539.05" x2="467.01" y2="500.41" xlink:href="#linear-gradient"/>
  </defs>
  <g id="Layer_1-2" data-name="Layer 1">
    <g>
      <g>
        <path class="cls-21" d="m161.53,343.65c-84.81-32.73-128.52-127.32-97.8-213.45,11.46-32.12,31.68-58.6,57.02-77.71l4.33,2.1c-25.45,18.97-45.68,45.25-57.05,77.15-29.81,83.57,11.83,175.65,93.5,211.91Z"/>
        <path class="cls-1" d="m274.32,26.77c-43.28-11.79-87.64-6.31-124.84,12.67l.27-4.55c37.68-17.98,82.01-22.02,124.57-8.12Z"/>
        <g>
          <g>
            <path class="cls-20" d="m245.91,109.68l-32.29,89.72-32.47-89.72h-42.59v3.17h10.69v117.05c0,3.44-1.09,6.02-3.26,7.72-2.18,1.72-4.65,2.58-7.43,2.58v3.16h24.76v-3.16c-2.64,0-5.09-.86-7.32-2.58-2.25-1.71-3.37-4.28-3.37-7.72v-113.1l44.17,126.56h5.74l45.16-127.35v75.2l4.31-12.17,24.59-69.36h-30.68Z"/>
            <path class="cls-27" d="m290.04,150.74v3.16h10.69v122.21c0,3.43-.16,6.6-.49,9.5-.34,2.91-1,5.45-1.98,7.63-.99,2.18-2.34,3.89-4.06,5.15-1.72,1.25-4.03,1.88-6.93,1.88-3.17,0-5.84-.36-8.02-1.09-2.18-.74-3.26-1.36-3.26-1.89s.4-.79,1.18-.79c4.23,0,7.43-1.28,9.61-3.86,2.17-2.57,3.27-5.45,3.27-8.62s-1.12-6.1-3.37-8.81c-2.25-2.71-5.62-4.06-10.09-4.06-4.24,0-7.43,1.32-9.62,3.95-2.18,2.64-3.26,5.75-3.26,9.32,0,2.37.46,4.72,1.38,7.03.92,2.31,2.38,4.39,4.35,6.23,1.98,1.85,4.48,3.34,7.52,4.47,3.04,1.12,6.67,1.68,10.9,1.68,14.38,0,25.44-3.9,33.17-11.69,7.72-7.78,11.59-19.74,11.59-35.84v-102.4h10.69v-3.16h-53.28Z"/>
          </g>
          <g>
            <line class="cls-15" x1="279.8" y1="100.64" x2="207.76" y2="303.85"/>
            <rect class="cls-8" x="135.98" y="201.57" width="215.6" height="1.33" transform="translate(-28.28 364.46) rotate(-70.49)"/>
          </g>
        </g>
        <g>
          <polygon class="cls-16" points="144.91 8.27 141.55 48.66 132.05 15.8 144.91 8.27"/>
          <polygon class="cls-28" points="136.2 51.8 99.33 34.97 112.19 27.44 136.2 51.8"/>
          <polygon class="cls-18" points="129.68 17.19 138.73 49.97 114.55 26.05 129.68 17.19"/>
          <polygon class="cls-10" points="127.8 2 127.84 11.12 119.29 6.99 127.8 2"/>
          <polygon class="cls-9" points="110.74 11.99 110.17 21.47 102.24 16.98 110.74 11.99"/>
          <polygon class="cls-29" points="127.17 13.94 112.96 22.27 115.14 9.7 127.17 13.94"/>
          <polygon class="cls-30" points="142.83 4.77 130.62 11.92 131.83 0 142.83 4.77"/>
          <polygon class="cls-6" points="109.51 24.29 97.29 31.44 98.51 19.52 109.51 24.29"/>
        </g>
      </g>
      <g>
        <path class="cls-3" d="m58.71,413.69l-16.01,42.13-17.58-42.39c-3.83.17-8.41.26-13.75.26-3.19,0-5.72-.09-7.57-.26v1.74c1.92.12,3.32.35,4.22.7.9.35,1.51,1.02,1.83,2,.32.99.48,2.58.48,4.79v39.17c0,2.96-.16,5.19-.48,6.7-.32,1.51-.93,2.61-1.83,3.31-.9.7-2.31,1.19-4.22,1.48v1.74c1.86-.17,4.38-.26,7.57-.26,4,0,7.14.09,9.4.26v-1.74c-2.61-.29-4.5-.8-5.66-1.52-1.16-.73-1.92-1.88-2.26-3.48-.35-1.6-.52-4.1-.52-7.53v-41.69l23.5,56.05h1.39l20.98-54.83v45.52c0,2.21-.17,3.8-.52,4.79-.35.99-1,1.65-1.96,2-.96.35-2.48.58-4.57.7v1.74c2.96-.17,7.54-.26,13.75-.26s10.47.09,13.67.26v-1.74c-1.92-.12-3.32-.35-4.22-.7-.9-.35-1.51-1.01-1.83-2-.32-.99-.48-2.58-.48-4.79v-43.17c0-2.21.16-3.8.48-4.79.32-.99.91-1.65,1.78-2,.87-.35,2.29-.58,4.27-.7v-1.74c-3.19.17-7.75.26-13.67.26h-6.18Z"/>
        <path class="cls-11" d="m122.85,413.43v1.74c2.49.29,4.32.8,5.48,1.52,1.16.73,1.94,1.9,2.35,3.52.41,1.62.61,4.12.61,7.49v22.98c0,7.2-1.19,12.75-3.57,16.67-2.38,3.92-6.47,5.88-12.27,5.88-4.47,0-7.59-1.44-9.36-4.31-1.77-2.87-2.66-7.35-2.66-13.45v-32.81c0-2.21.17-3.8.52-4.79.35-.99,1-1.65,1.96-2,.96-.35,2.48-.58,4.57-.7v-1.74c-3.19.17-7.8.26-13.84.26s-10.62-.09-13.58-.26v1.74c1.92.12,3.32.35,4.22.7.9.35,1.51,1.02,1.83,2,.32.99.48,2.58.48,4.79v27.33c0,5.92.46,10.52,1.39,13.8.93,3.28,2.73,5.99,5.4,8.14,3.71,2.9,8.94,4.35,15.67,4.35,4.29,0,7.92-.71,10.88-2.13,2.96-1.42,5.22-3.41,6.79-5.96,2.38-4,3.57-10.15,3.57-18.45v-23.07c0-2.96.16-5.19.48-6.7.32-1.51.93-2.61,1.83-3.31.9-.7,2.31-1.19,4.22-1.48v-1.74c-1.8.17-4.32.26-7.57.26-4.06,0-7.2-.09-9.4-.26Z"/>
        <path class="cls-2" d="m181.95,445.64c-1.97-1.68-4.67-3.66-8.09-5.92l-2.79-1.92c-3.25-2.15-5.66-3.84-7.22-5.09-1.57-1.25-2.79-2.62-3.66-4.13-.87-1.51-1.31-3.28-1.31-5.31,0-2.73.88-4.89,2.65-6.48,1.77-1.6,4.08-2.39,6.92-2.39s5.44.88,7.62,2.65c2.18,1.77,3.86,4.08,5.05,6.92,1.19,2.84,1.9,5.83,2.13,8.96h2c0-9.34.14-15.96.43-19.84h-2c-.17,1.33-.41,2.31-.7,2.92-.29.61-.7.91-1.22.91-.35,0-.77-.12-1.26-.35-.49-.23-1.06-.52-1.7-.87-1.86-1.1-3.69-1.94-5.48-2.52-1.8-.58-4.21-.87-7.22-.87-3.54,0-6.79.58-9.75,1.74-2.96,1.16-5.32,2.95-7.09,5.35-1.77,2.41-2.65,5.35-2.65,8.83,0,3.02.67,5.67,2,7.96,1.33,2.29,3.05,4.28,5.13,5.96,2.09,1.68,4.87,3.66,8.36,5.92,4.53,2.9,7.83,5.51,9.92,7.83,2.09,2.32,3.13,5.11,3.13,8.36s-1.02,5.54-3.05,7.22c-2.03,1.68-4.61,2.52-7.75,2.52-5.17,0-9-2.01-11.49-6.05-2.5-4.03-3.95-9.3-4.35-15.8h-2c0,12.01-.12,19.85-.35,23.5h2c.17-1.33.41-2.31.7-2.92.29-.61.7-.91,1.22-.91.7,0,1.68.41,2.96,1.22,1.8.99,3.77,1.77,5.92,2.35,2.15.58,4.84.87,8.09.87,4,0,7.64-.64,10.92-1.92s5.88-3.18,7.79-5.7c1.92-2.52,2.87-5.64,2.87-9.36,0-2.96-.62-5.56-1.87-7.79-1.25-2.23-2.86-4.19-4.83-5.88Z"/>
        <path class="cls-4" d="m221.29,413.69c-12.65,0-21.62-.09-26.9-.26.41,5.51.61,10.45.61,14.8,0,2.73-.09,4.93-.26,6.62h2c.99-4.87,2.18-8.72,3.57-11.53,1.39-2.81,3.06-4.83,5-6.05,1.94-1.22,4.31-1.83,7.09-1.83h1.92v49.7c0,2.44-.25,4.21-.74,5.31-.49,1.1-1.36,1.84-2.61,2.22-1.25.38-3.24.6-5.96.65v1.74c6.96-.17,12.27-.26,15.93-.26s9.23.09,16.54.26v-1.74c-2.73-.06-4.72-.27-5.96-.65-1.25-.38-2.12-1.12-2.61-2.22-.49-1.1-.74-2.87-.74-5.31v-49.7h2c4.18,0,7.47,1.45,9.88,4.35,2.41,2.9,4.31,7.92,5.7,15.06h2c-.17-1.68-.26-3.89-.26-6.62,0-4.35.2-9.28.61-14.8-5.22.17-14.16.26-26.81.26Z"/>
        <path class="cls-26" d="m290.23,413.43v1.74c1.92.12,3.32.35,4.22.7.9.35,1.51,1.02,1.83,2,.32.99.48,2.58.48,4.79v20.54h-23.07v-20.54c0-2.21.16-3.8.48-4.79.32-.99.91-1.65,1.78-2,.87-.35,2.29-.58,4.26-.7v-1.74c-3.13.17-7.52.26-13.14.26-6.21,0-10.79-.09-13.75-.26v1.74c1.92.12,3.32.35,4.22.7.9.35,1.51,1.02,1.83,2,.32.99.48,2.58.48,4.79v43.17c0,2.21-.16,3.8-.48,4.79-.32.99-.93,1.65-1.83,2-.9.35-2.31.58-4.22.7v1.74c2.96-.17,7.54-.26,13.75-.26,5.63,0,10.01.09,13.14.26v-1.74c-1.97-.12-3.39-.35-4.26-.7-.87-.35-1.47-1.01-1.78-2-.32-.99-.48-2.58-.48-4.79v-20.89h23.07v20.89c0,2.21-.16,3.8-.48,4.79-.32.99-.93,1.65-1.83,2-.9.35-2.31.58-4.22.7v1.74c3.25-.17,7.8-.26,13.67-.26s10.39.09,13.23.26v-1.74c-1.97-.12-3.39-.35-4.26-.7-.87-.35-1.47-1.01-1.78-2-.32-.99-.48-2.58-.48-4.79v-43.17c0-2.21.16-3.8.48-4.79.32-.99.91-1.65,1.78-2,.87-.35,2.29-.58,4.26-.7v-1.74c-2.84.17-7.25.26-13.23.26s-10.42-.09-13.67-.26Z"/>
        <path class="cls-7" d="m373.18,467.74l-21.15-54.49c-.58.06-1.57.09-2.96.09s-2.41-.03-3.05-.09l-19.84,50.92c-2.15,5.57-4.64,8.62-7.49,9.14v1.74c1.74-.17,3.95-.26,6.62-.26,3.25,0,6.85.09,10.79.26v-1.74c-2.55-.12-4.48-.59-5.79-1.44-1.31-.84-1.96-2.33-1.96-4.48,0-2.26.81-5.48,2.44-9.66l2.26-6h18.97l5.22,14.27c.7,1.74,1.04,3.13,1.04,4.18,0,1.1-.46,1.87-1.39,2.31-.93.43-2.5.71-4.7.83v1.74c2.9-.17,7.31-.26,13.23-.26,5.34,0,9.75.09,13.23.26v-1.74c-.93-.06-1.89-.52-2.87-1.39-.99-.87-1.86-2.26-2.61-4.18Zm-39.43-17.76l9.05-23.5,8.62,23.5h-17.67Z"/>
        <path class="cls-13" d="m425.49,433.28c-.17-1.68-.26-3.89-.26-6.61,0-3.89.2-8.3.61-13.23-3.6.17-9.66.26-18.19.26-12.65,0-22.11-.09-28.38-.26v1.74c1.92.12,3.32.35,4.22.7.9.35,1.51,1.02,1.83,2,.32.99.48,2.58.48,4.79v43.17c0,2.21-.16,3.8-.48,4.79-.32.99-.93,1.65-1.83,2-.9.35-2.31.58-4.22.7v1.74l2.79-.09c4.41-.12,8.07-.17,10.97-.17,3.48,0,8.79.09,15.93.26v-1.92c-2.73-.06-4.71-.26-5.96-.61-1.25-.35-2.12-1.06-2.61-2.13-.49-1.07-.74-2.77-.74-5.09v-20.02h3.05c5.86,0,9.4,3.83,10.62,11.49h2c-.35-5.28-.52-9.4-.52-12.36v-4.18c0-3.02.09-5.75.26-8.18h-2c-.64,3.13-1.76,5.83-3.35,8.09-1.6,2.26-3.93,3.39-7.01,3.39h-3.05v-21.93c0-1.86.14-3.21.44-4.05.29-.84.84-1.41,1.65-1.7.81-.29,2.12-.44,3.92-.44h2.87c4.18,0,7.43,1.34,9.75,4,2.32,2.67,4.06,7.28,5.22,13.84h2Z"/>
        <path class="cls-19" d="m478.93,471.92c-.99-.87-1.86-2.26-2.61-4.18l-21.15-54.49c-.58.06-1.57.09-2.96.09s-2.41-.03-3.05-.09l-19.84,50.92c-2.15,5.57-4.64,8.62-7.49,9.14v1.74c1.74-.17,3.95-.26,6.62-.26,3.25,0,6.85.09,10.79.26v-1.74c-2.55-.12-4.48-.59-5.79-1.44-1.31-.84-1.96-2.33-1.96-4.48,0-2.26.81-5.48,2.44-9.66l2.26-6h18.97l5.22,14.27c.7,1.74,1.04,3.13,1.04,4.18,0,1.1-.46,1.87-1.39,2.31-.93.43-2.5.71-4.7.83v1.74c2.9-.17,7.31-.26,13.23-.26,5.34,0,9.75.09,13.23.26v-1.74c-.93-.06-1.89-.52-2.87-1.39Zm-42.04-21.93l9.05-23.5,8.62,23.5h-17.67Z"/>
      </g>
      <g>
        <path class="cls-25" d="m2.95,500.99v1.05c1.27.07,2.19.21,2.77.42.58.21.98.62,1.19,1.21.21.6.32,1.56.32,2.9v28.99c0,4.18-.59,7.15-1.77,8.91-1.18,1.76-3,2.67-5.46,2.74v1c2.95,0,5.4-.79,7.35-2.37,1.95-1.58,3.24-3.66,3.87-6.22.39-1.58.63-3.52.74-5.83s.16-4.95.16-7.93v-19.29c0-1.33.11-2.3.32-2.9.21-.6.61-1,1.19-1.21.58-.21,1.5-.35,2.77-.42v-1.05c-1.65.11-3.92.16-6.8.16s-5.17-.05-6.64-.16Z"/>
        <path class="cls-17" d="m71.85,527.77h-1.21c-.25,2.5-.63,4.38-1.16,5.67-.53,1.28-1.36,2.21-2.5,2.79-1.14.58-2.8.87-4.98.87h-3.85c-1.26,0-2.19-.1-2.77-.29-.58-.19-.97-.59-1.19-1.19s-.32-1.56-.32-2.9v-12.65h3.48c1.41,0,2.5.37,3.29,1.11.79.74,1.27,1.84,1.45,3.29.18,1.46.28,2.31.32,2.56h1.21c-.21-3.2-.32-5.69-.32-7.49v-2.53c0-1.83.05-3.48.16-4.96h-1.21l-.16,1.05c-.14,1.2-.33,2.19-.55,2.98s-.68,1.48-1.34,2.06c-.67.58-1.62.87-2.85.87h-3.48v-12.44c0-1.33.11-2.3.32-2.9.21-.6.61-.99,1.19-1.19.58-.19,1.5-.29,2.77-.29h4.38c1.86,0,3.25.25,4.16.76s1.56,1.32,1.95,2.42c.39,1.11.7,2.8.95,5.09h1.21c-.11-.81-.16-1.9-.16-3.27,0-1.83.12-3.9.37-6.22-2.18.11-5.85.16-11.02.16-6.75,0-11.84-.05-15.29-.16v1.05c1.27.07,2.19.21,2.77.42s.98.62,1.19,1.21c.21.6.32,1.56.32,2.9v26.15c0,1.34-.11,2.3-.32,2.9s-.61,1-1.19,1.21c-.58.21-1.5.35-2.77.42v1.05c3.44-.11,8.54-.16,15.29-.16,5.66,0,9.68.05,12.07.16-.25-2.5-.37-4.74-.37-6.75,0-1.58.05-2.85.16-3.79Z"/>
        <path class="cls-14" d="m136.64,500.99v1.05c1.58.04,2.72.29,3.43.76.7.47,1.05,1.29,1.05,2.45s-.28,2.55-.84,4.27l-6.48,20.4-7.59-23.46c-.35-1.05-.53-1.9-.53-2.53,0-.74.26-1.22.79-1.45s1.46-.38,2.79-.45v-1.05c-1.48.11-3.73.16-6.75.16-2.14,0-3.85-.05-5.11-.16v1.05c1.37.07,2.41,1.2,3.11,3.37l1.42,4.16-6.43,20.4-7.7-23.51c-.39-1.16-.58-2.02-.58-2.58,0-.6.19-1.04.58-1.32.39-.28,1.05-.46,2-.53v-1.05c-1.26.11-3.16.16-5.69.16-2.32,0-4.2-.05-5.64-.16v1.05c1.69.07,2.9,1.2,3.64,3.37l11.18,33.16h.84l8.38-27.15,9.17,27.15h.84l9.96-31.95c.81-2.6,2.2-4.13,4.16-4.59v-1.05c-1.05.11-2.37.16-3.95.16-2.04,0-4.06-.05-6.06-.16Z"/>
        <path class="cls-31" d="m200.16,527.77h-1.21c-.25,2.5-.63,4.38-1.16,5.67-.53,1.28-1.36,2.21-2.5,2.79-1.14.58-2.8.87-4.98.87h-3.85c-1.26,0-2.19-.1-2.77-.29-.58-.19-.97-.59-1.19-1.19s-.32-1.56-.32-2.9v-12.65h3.48c1.41,0,2.5.37,3.29,1.11.79.74,1.27,1.84,1.45,3.29.18,1.46.28,2.31.32,2.56h1.21c-.21-3.2-.32-5.69-.32-7.49v-2.53c0-1.83.05-3.48.16-4.96h-1.21l-.16,1.05c-.14,1.2-.33,2.19-.55,2.98s-.68,1.48-1.34,2.06c-.67.58-1.62.87-2.85.87h-3.48v-12.44c0-1.33.11-2.3.32-2.9.21-.6.61-.99,1.19-1.19.58-.19,1.5-.29,2.77-.29h4.38c1.86,0,3.25.25,4.16.76s1.56,1.32,1.95,2.42c.39,1.11.7,2.8.95,5.09h1.21c-.11-.81-.16-1.9-.16-3.27,0-1.83.12-3.9.37-6.22-2.18.11-5.85.16-11.02.16-6.75,0-11.84-.05-15.29-.16v1.05c1.27.07,2.19.21,2.77.42s.98.62,1.19,1.21c.21.6.32,1.56.32,2.9v26.15c0,1.34-.11,2.3-.32,2.9s-.61,1-1.19,1.21c-.58.21-1.5.35-2.77.42v1.05c3.44-.11,8.54-.16,15.29-.16,5.66,0,9.68.05,12.07.16-.25-2.5-.37-4.74-.37-6.75,0-1.58.05-2.85.16-3.79Z"/>
        <path class="cls-22" d="m256.52,527.24h-1.21c-.25,2.6-.63,4.59-1.16,5.96-.53,1.37-1.36,2.36-2.5,2.98-1.14.62-2.8.92-4.98.92h-3.85c-1.26,0-2.19-.1-2.77-.29-.58-.19-.97-.59-1.19-1.19s-.32-1.56-.32-2.9v-26.15c0-1.33.11-2.3.32-2.9.21-.6.61-1,1.19-1.21.58-.21,1.5-.35,2.77-.42v-1.05c-1.65.11-3.88.16-6.69.16-3.02,0-5.27-.05-6.75-.16v1.05c1.27.07,2.19.21,2.77.42s.98.62,1.19,1.21c.21.6.32,1.56.32,2.9v26.15c0,1.34-.11,2.3-.32,2.9s-.61,1-1.19,1.21c-.58.21-1.5.35-2.77.42v1.05c3.44-.11,8.54-.16,15.29-.16,5.66,0,9.68.05,12.07.16-.25-2.5-.37-4.74-.37-6.75,0-1.79.05-3.23.16-4.32Z"/>
        <path class="cls-5" d="m311.76,527.24h-1.21c-.25,2.6-.63,4.59-1.16,5.96-.53,1.37-1.36,2.36-2.5,2.98-1.14.62-2.8.92-4.98.92h-3.85c-1.26,0-2.19-.1-2.77-.29-.58-.19-.97-.59-1.19-1.19s-.32-1.56-.32-2.9v-26.15c0-1.33.11-2.3.32-2.9.21-.6.61-1,1.19-1.21.58-.21,1.5-.35,2.77-.42v-1.05c-1.65.11-3.88.16-6.69.16-3.02,0-5.27-.05-6.75-.16v1.05c1.27.07,2.19.21,2.77.42s.98.62,1.19,1.21c.21.6.32,1.56.32,2.9v26.15c0,1.34-.11,2.3-.32,2.9s-.61,1-1.19,1.21c-.58.21-1.5.35-2.77.42v1.05c3.44-.11,8.54-.16,15.29-.16,5.66,0,9.68.05,12.07.16-.25-2.5-.37-4.74-.37-6.75,0-1.79.05-3.23.16-4.32Z"/>
        <path class="cls-23" d="m367.01,527.77h-1.21c-.25,2.5-.63,4.38-1.16,5.67-.53,1.28-1.36,2.21-2.5,2.79-1.14.58-2.8.87-4.98.87h-3.85c-1.26,0-2.19-.1-2.77-.29-.58-.19-.97-.59-1.19-1.19s-.32-1.56-.32-2.9v-12.65h3.48c1.41,0,2.5.37,3.29,1.11.79.74,1.27,1.84,1.45,3.29.18,1.46.28,2.31.32,2.56h1.21c-.21-3.2-.32-5.69-.32-7.49v-2.53c0-1.83.05-3.48.16-4.96h-1.21l-.16,1.05c-.14,1.2-.33,2.19-.55,2.98s-.68,1.48-1.34,2.06c-.67.58-1.62.87-2.85.87h-3.48v-12.44c0-1.33.11-2.3.32-2.9.21-.6.61-.99,1.19-1.19.58-.19,1.5-.29,2.77-.29h4.38c1.86,0,3.25.25,4.16.76s1.56,1.32,1.95,2.42c.39,1.11.7,2.8.95,5.09h1.21c-.11-.81-.16-1.9-.16-3.27,0-1.83.12-3.9.37-6.22-2.18.11-5.85.16-11.02.16-6.75,0-11.84-.05-15.29-.16v1.05c1.27.07,2.19.21,2.77.42s.98.62,1.19,1.21c.21.6.32,1.56.32,2.9v26.15c0,1.34-.11,2.3-.32,2.9s-.61,1-1.19,1.21c-.58.21-1.5.35-2.77.42v1.05c3.44-.11,8.54-.16,15.29-.16,5.66,0,9.68.05,12.07.16-.25-2.5-.37-4.74-.37-6.75,0-1.58.05-2.85.16-3.79Z"/>
        <path class="cls-24" d="m426.6,536.63c-.4.32-.9.47-1.5.47-.67,0-1.2-.32-1.58-.95-.39-.63-.76-1.76-1.11-3.37l-1.32-5.38c-.49-2.21-1.26-3.83-2.32-4.85-1.05-1.02-2.74-1.72-5.06-2.11l-.63-.11c2.46-.39,4.46-1.13,5.98-2.24,1.53-1.11,2.62-2.35,3.27-3.74.65-1.39.98-2.77.98-4.14,0-2.71-1.1-4.91-3.29-6.62-2.2-1.7-5.33-2.56-9.41-2.56-.84,0-1.6.02-2.27.05l-5.69.05c-2.81,0-4.96-.05-6.43-.16v1.05c1.27.07,2.19.21,2.77.42s.98.62,1.19,1.21c.21.6.32,1.56.32,2.9v26.15c0,1.34-.11,2.3-.32,2.9s-.61,1-1.19,1.21c-.58.21-1.5.35-2.77.42v1.05c1.48-.11,3.72-.16,6.75-.16,2.85,0,5.08.05,6.69.16v-1.05c-1.26-.07-2.19-.21-2.77-.42-.58-.21-.97-.62-1.19-1.21s-.32-1.56-.32-2.9v-12.12h5.01c1.33,0,2.37.3,3.11.9s1.29,1.39,1.66,2.37c.37.98.76,2.39,1.19,4.22l1.16,5.27c.46,2.11,1.15,3.58,2.08,4.43.93.84,2.12,1.27,3.56,1.27,1.33,0,2.41-.26,3.22-.79.81-.53,1.62-1.39,2.42-2.58l-.79-.58c-.53.7-.99,1.21-1.4,1.53Zm-17.69-17.08h-3.53v-12.97c0-1.26.11-2.21.32-2.85s.59-1.07,1.13-1.32,1.36-.37,2.45-.37c3.09,0,5.32.74,6.69,2.21,1.37,1.48,2.06,3.66,2.06,6.54s-.65,4.88-1.95,6.43c-1.3,1.55-3.69,2.32-7.17,2.32Z"/>
        <path class="cls-12" d="m477.13,524.35c-.77-1.33-1.8-2.52-3.08-3.56-1.28-1.04-3.03-2.24-5.25-3.61l-1.53-.95c-1.76-1.09-3.11-1.99-4.06-2.69-.95-.7-1.73-1.55-2.35-2.53-.62-.98-.92-2.14-.92-3.48,0-1.79.6-3.26,1.79-4.4,1.19-1.14,2.74-1.71,4.64-1.71,2.71,0,4.77.98,6.19,2.93,1.42,1.95,2.24,4.35,2.45,7.2h1.21c0-5.13.09-8.71.26-10.75h-1.21c-.11.81-.25,1.4-.42,1.77s-.42.55-.74.55c-.42,0-1.02-.25-1.79-.74-.95-.63-1.87-1.12-2.77-1.45-.9-.33-2.12-.5-3.66-.5-2.81,0-5.17.78-7.06,2.35-1.9,1.56-2.85,3.82-2.85,6.77,0,1.86.4,3.49,1.21,4.88.81,1.39,1.85,2.58,3.14,3.56,1.28.98,2.96,2.11,5.03,3.37,2.85,1.72,4.93,3.27,6.25,4.64,1.32,1.37,1.98,3.04,1.98,5.01,0,2.32-.67,4.07-2,5.25-1.34,1.18-2.95,1.77-4.85,1.77-3.13,0-5.45-1.11-6.96-3.32-1.51-2.21-2.39-5.09-2.64-8.65h-1.21c0,6.5-.07,10.72-.21,12.65h1.21c.11-.81.25-1.4.42-1.77.18-.37.42-.55.74-.55.42,0,1.02.25,1.79.74.98.6,2.01,1.07,3.08,1.42s2.45.53,4.14.53c3.23,0,5.9-.87,8.01-2.61,2.11-1.74,3.16-4.21,3.16-7.41,0-1.79-.39-3.36-1.16-4.69Z"/>
      </g>
    </g>
  </g>
</svg>